# xmcd
#
# Track frame offsets:
#	150
#	13947
#	38047
#	54355
#	71051
#	82165
#	95819
#	110723
#	121467
#	135159
#	148276
#	164100
#	179564
#	191900
#	207465
#	220949
#	232714
#	247840
#	259204
#
# Disc length: 3586 seconds
#
# Revision: 0
# Processed by: cddbd v1.4PL0 Copyright (c) Steve Scherf et al.
# Submitted via: dBpowerAMP V4.0
#
DISCID=280e0013
DTITLE=Schlappseil - 1
DYEAR=1900
DGENRE=Acid Punk
TTITLE0=adersbach
TTITLE1=adrenalin
TTITLE2=hey du
TTITLE3=extremi
TTITLE4=geier jagen
TTITLE5=karl der käfer
TTITLE6=schwachsinn ist unheilbar
TTITLE7=regenklettern
TTITLE8=schneeschuhfahrn
TTITLE9=schrumpfkopfjäger
TTITLE10=stau auf der A4
TTITLE11=wochenend und sonnenschein
TTITLE12=sündenpfuhl
TTITLE13=nur der Jim Beam
TTITLE14=bier
TTITLE15=sssssssss
TTITLE16=die fliege
TTITLE17=mei golf
TTITLE18=schwarzfahrn
EXTD=
EXTT0=
EXTT1=
EXTT2=
EXTT3=
EXTT4=
EXTT5=
EXTT6=
EXTT7=
EXTT8=
EXTT9=
EXTT10=
EXTT11=
EXTT12=
EXTT13=
EXTT14=
EXTT15=
EXTT16=
EXTT17=
EXTT18=
PLAYORDER=
